<?xml version="1.0" encoding="utf-8"?>
<!-- Generator: Adobe Illustrator 23.0.2, SVG Export Plug-In . SVG Version: 6.00 Build 0)  -->
<svg version="1.1" id="Layer_1" xmlns="http://www.w3.org/2000/svg" xmlns:xlink="http://www.w3.org/1999/xlink" x="0px" y="0px"
	 viewBox="0 0 24 24" style="enable-background:new 0 0 24 24;" xml:space="preserve">
<style type="text/css">
	.st0{fill:#AAACB0;}
	.st1{fill:none;}
</style>
<path class="st0" d="M12,5.9c1.16,0,2.1,0.94,2.1,2.1s-0.94,2.1-2.1,2.1S9.9,9.16,9.9,8S10.84,5.9,12,5.9 M12,14.9
	c2.97,0,6.1,1.46,6.1,2.1v1.1H5.9V17C5.9,16.36,9.03,14.9,12,14.9 M12,4C9.79,4,8,5.79,8,8s1.79,4,4,4s4-1.79,4-4S14.21,4,12,4z
	 M12,13c-2.67,0-8,1.34-8,4v3h16v-3C20,14.34,14.67,13,12,13z"/>
<path class="st1" d="M0,0h24v24H0V0z"/>
</svg>
